<mxfile host="app.diagrams.net" modified="2023-10-21T11:35:25.325Z" agent="Mozilla/5.0 (Windows NT 10.0; Win64; x64) AppleWebKit/537.36 (KHTML, like Gecko) Chrome/118.0.0.0 Safari/537.36" etag="6Z-UF4eWlJIUgJJm_1g6" version="22.0.6" type="google">
  <diagram name="Page-1" id="Y6qC30RfmpkJSUFtH3xF">
    <mxGraphModel grid="1" page="1" gridSize="10" guides="1" tooltips="1" connect="1" arrows="1" fold="1" pageScale="1" pageWidth="850" pageHeight="1100" math="0" shadow="0">
      <root>
        <mxCell id="0" />
        <mxCell id="1" parent="0" />
        <mxCell id="DV2UV_v3Ct8L2TjnKOPa-3" value="Student" style="swimlane;whiteSpace=wrap;html=1;fillColor=#d5e8d4;strokeColor=#246100;" vertex="1" parent="1">
          <mxGeometry x="-10" width="380" height="600" as="geometry" />
        </mxCell>
        <mxCell id="DV2UV_v3Ct8L2TjnKOPa-7" value="Choose Option" style="rounded=1;whiteSpace=wrap;html=1;fillColor=#d5e8d4;strokeColor=#82b366;" vertex="1" parent="DV2UV_v3Ct8L2TjnKOPa-3">
          <mxGeometry x="100" y="45" width="120" height="60" as="geometry" />
        </mxCell>
        <mxCell id="DV2UV_v3Ct8L2TjnKOPa-9" value="" style="rhombus;whiteSpace=wrap;html=1;fillColor=#d5e8d4;strokeColor=#82b366;" vertex="1" parent="DV2UV_v3Ct8L2TjnKOPa-3">
          <mxGeometry x="120" y="130" width="80" height="80" as="geometry" />
        </mxCell>
        <mxCell id="DV2UV_v3Ct8L2TjnKOPa-10" value="" style="endArrow=classic;html=1;rounded=0;exitX=0.5;exitY=1;exitDx=0;exitDy=0;entryX=0.5;entryY=0;entryDx=0;entryDy=0;" edge="1" parent="DV2UV_v3Ct8L2TjnKOPa-3" source="DV2UV_v3Ct8L2TjnKOPa-7" target="DV2UV_v3Ct8L2TjnKOPa-9">
          <mxGeometry relative="1" as="geometry">
            <mxPoint x="170" y="240" as="sourcePoint" />
            <mxPoint x="270" y="240" as="targetPoint" />
          </mxGeometry>
        </mxCell>
        <mxCell id="DV2UV_v3Ct8L2TjnKOPa-18" value="Upload Document" style="rounded=1;whiteSpace=wrap;html=1;fillColor=#d5e8d4;strokeColor=#82b366;" vertex="1" parent="DV2UV_v3Ct8L2TjnKOPa-3">
          <mxGeometry x="100" y="270" width="120" height="60" as="geometry" />
        </mxCell>
        <mxCell id="DV2UV_v3Ct8L2TjnKOPa-25" value="Choose printer" style="whiteSpace=wrap;html=1;rounded=1;fillColor=#d5e8d4;strokeColor=#82b366;" vertex="1" parent="DV2UV_v3Ct8L2TjnKOPa-3">
          <mxGeometry x="100" y="350" width="120" height="60" as="geometry" />
        </mxCell>
        <mxCell id="DV2UV_v3Ct8L2TjnKOPa-35" value="" style="endArrow=open;endFill=1;endSize=12;html=1;rounded=0;entryX=0.5;entryY=0;entryDx=0;entryDy=0;exitX=0.5;exitY=1;exitDx=0;exitDy=0;" edge="1" parent="DV2UV_v3Ct8L2TjnKOPa-3" source="DV2UV_v3Ct8L2TjnKOPa-9" target="DV2UV_v3Ct8L2TjnKOPa-18">
          <mxGeometry width="160" relative="1" as="geometry">
            <mxPoint x="450" y="340" as="sourcePoint" />
            <mxPoint x="450" y="380" as="targetPoint" />
          </mxGeometry>
        </mxCell>
        <mxCell id="DV2UV_v3Ct8L2TjnKOPa-36" value="[Print]" style="edgeLabel;html=1;align=center;verticalAlign=middle;resizable=0;points=[];" vertex="1" connectable="0" parent="DV2UV_v3Ct8L2TjnKOPa-35">
          <mxGeometry x="-0.015" y="3" relative="1" as="geometry">
            <mxPoint x="-1" as="offset" />
          </mxGeometry>
        </mxCell>
        <mxCell id="DV2UV_v3Ct8L2TjnKOPa-39" value="" style="endArrow=open;endFill=1;endSize=12;html=1;rounded=0;entryX=1;entryY=0.5;entryDx=0;entryDy=0;exitX=0.838;exitY=0.886;exitDx=0;exitDy=0;exitPerimeter=0;" edge="1" parent="DV2UV_v3Ct8L2TjnKOPa-3" source="v3GQx257k6rqws_gaWiy-83" target="DV2UV_v3Ct8L2TjnKOPa-42">
          <mxGeometry width="160" relative="1" as="geometry">
            <mxPoint x="260" y="449.58" as="sourcePoint" />
            <mxPoint x="140" y="449.58" as="targetPoint" />
          </mxGeometry>
        </mxCell>
        <mxCell id="DV2UV_v3Ct8L2TjnKOPa-42" value="Select printing properties" style="whiteSpace=wrap;html=1;rounded=1;fillColor=#d5e8d4;strokeColor=#82b366;" vertex="1" parent="DV2UV_v3Ct8L2TjnKOPa-3">
          <mxGeometry x="100" y="420" width="120" height="60" as="geometry" />
        </mxCell>
        <mxCell id="v3GQx257k6rqws_gaWiy-83" value="" style="rounded=0;whiteSpace=wrap;html=1;rotation=90;fillColor=#000000;" vertex="1" parent="DV2UV_v3Ct8L2TjnKOPa-3">
          <mxGeometry x="220" y="406" width="120" height="7.5" as="geometry" />
        </mxCell>
        <mxCell id="DV2UV_v3Ct8L2TjnKOPa-38" value="" style="endArrow=open;endFill=1;endSize=12;html=1;rounded=0;entryX=1;entryY=0.5;entryDx=0;entryDy=0;exitX=0.25;exitY=1;exitDx=0;exitDy=0;" edge="1" parent="DV2UV_v3Ct8L2TjnKOPa-3" source="v3GQx257k6rqws_gaWiy-83" target="DV2UV_v3Ct8L2TjnKOPa-25">
          <mxGeometry width="160" relative="1" as="geometry">
            <mxPoint x="250" y="380" as="sourcePoint" />
            <mxPoint x="140" y="380" as="targetPoint" />
          </mxGeometry>
        </mxCell>
        <mxCell id="DV2UV_v3Ct8L2TjnKOPa-4" value="System" style="swimlane;whiteSpace=wrap;html=1;fillColor=#fff2cc;strokeColor=#664d00;" vertex="1" parent="1">
          <mxGeometry x="370" width="520" height="930" as="geometry" />
        </mxCell>
        <mxCell id="DV2UV_v3Ct8L2TjnKOPa-23" value="Checking file type" style="whiteSpace=wrap;html=1;rounded=1;fillColor=#fff2cc;strokeColor=#d6b656;" vertex="1" parent="DV2UV_v3Ct8L2TjnKOPa-4">
          <mxGeometry x="40" y="270" width="120" height="60" as="geometry" />
        </mxCell>
        <mxCell id="DV2UV_v3Ct8L2TjnKOPa-28" value="Show printer status and printing properties menu" style="whiteSpace=wrap;html=1;rounded=1;fillColor=#fff2cc;strokeColor=#d6b656;" vertex="1" parent="DV2UV_v3Ct8L2TjnKOPa-4">
          <mxGeometry x="40" y="370" width="120" height="60" as="geometry" />
        </mxCell>
        <mxCell id="DV2UV_v3Ct8L2TjnKOPa-34" value="" style="endArrow=open;endFill=1;endSize=12;html=1;rounded=0;entryX=0.5;entryY=0;entryDx=0;entryDy=0;exitX=0.5;exitY=1;exitDx=0;exitDy=0;" edge="1" parent="DV2UV_v3Ct8L2TjnKOPa-4" source="DV2UV_v3Ct8L2TjnKOPa-23" target="DV2UV_v3Ct8L2TjnKOPa-28">
          <mxGeometry width="160" relative="1" as="geometry">
            <mxPoint x="-190" y="310" as="sourcePoint" />
            <mxPoint x="50" y="310" as="targetPoint" />
          </mxGeometry>
        </mxCell>
        <mxCell id="DV2UV_v3Ct8L2TjnKOPa-48" value="" style="edgeStyle=orthogonalEdgeStyle;rounded=0;orthogonalLoop=1;jettySize=auto;html=1;entryX=0;entryY=0.5;entryDx=0;entryDy=0;" edge="1" parent="DV2UV_v3Ct8L2TjnKOPa-4" source="DV2UV_v3Ct8L2TjnKOPa-45" target="SN7o0DrtnjlMzKYmmWDg-7">
          <mxGeometry relative="1" as="geometry" />
        </mxCell>
        <mxCell id="DV2UV_v3Ct8L2TjnKOPa-45" value="checking printing properties" style="whiteSpace=wrap;html=1;rounded=1;fillColor=#fff2cc;strokeColor=#d6b656;" vertex="1" parent="DV2UV_v3Ct8L2TjnKOPa-4">
          <mxGeometry x="40" y="460" width="120" height="60" as="geometry" />
        </mxCell>
        <mxCell id="DV2UV_v3Ct8L2TjnKOPa-50" value="" style="edgeStyle=orthogonalEdgeStyle;rounded=0;orthogonalLoop=1;jettySize=auto;html=1;" edge="1" parent="DV2UV_v3Ct8L2TjnKOPa-4">
          <mxGeometry relative="1" as="geometry">
            <mxPoint x="89.99999999999955" y="649.79" as="sourcePoint" />
          </mxGeometry>
        </mxCell>
        <mxCell id="SN7o0DrtnjlMzKYmmWDg-7" value="" style="rhombus;whiteSpace=wrap;html=1;fillColor=#fff2cc;strokeColor=#d6b656;" vertex="1" parent="DV2UV_v3Ct8L2TjnKOPa-4">
          <mxGeometry x="220" y="450" width="80" height="80" as="geometry" />
        </mxCell>
        <mxCell id="SN7o0DrtnjlMzKYmmWDg-10" value="" style="endArrow=open;endFill=1;endSize=12;html=1;rounded=0;exitX=1;exitY=1;exitDx=0;exitDy=0;entryX=0.341;entryY=-0.046;entryDx=0;entryDy=0;entryPerimeter=0;" edge="1" parent="DV2UV_v3Ct8L2TjnKOPa-4" source="SN7o0DrtnjlMzKYmmWDg-7" target="v3GQx257k6rqws_gaWiy-84">
          <mxGeometry width="160" relative="1" as="geometry">
            <mxPoint x="50" y="410" as="sourcePoint" />
            <mxPoint x="210" y="620" as="targetPoint" />
            <Array as="points">
              <mxPoint x="280" y="620" />
            </Array>
          </mxGeometry>
        </mxCell>
        <mxCell id="SN7o0DrtnjlMzKYmmWDg-11" value="[valid properties]" style="edgeLabel;html=1;align=center;verticalAlign=middle;resizable=0;points=[];" vertex="1" connectable="0" parent="SN7o0DrtnjlMzKYmmWDg-10">
          <mxGeometry x="0.1885" y="3" relative="1" as="geometry">
            <mxPoint x="-3" y="-43" as="offset" />
          </mxGeometry>
        </mxCell>
        <mxCell id="v3GQx257k6rqws_gaWiy-13" value="" style="edgeStyle=orthogonalEdgeStyle;rounded=0;orthogonalLoop=1;jettySize=auto;html=1;entryX=0.5;entryY=0;entryDx=0;entryDy=0;" edge="1" parent="DV2UV_v3Ct8L2TjnKOPa-4" source="v3GQx257k6rqws_gaWiy-11" target="v3GQx257k6rqws_gaWiy-14">
          <mxGeometry relative="1" as="geometry">
            <mxPoint x="270" y="185" as="targetPoint" />
          </mxGeometry>
        </mxCell>
        <mxCell id="v3GQx257k6rqws_gaWiy-11" value="Create number of page need purchase" style="rounded=1;whiteSpace=wrap;html=1;fillColor=#fff2cc;strokeColor=#d6b656;" vertex="1" parent="DV2UV_v3Ct8L2TjnKOPa-4">
          <mxGeometry x="210" y="45" width="120" height="60" as="geometry" />
        </mxCell>
        <mxCell id="v3GQx257k6rqws_gaWiy-14" value="The order to purchase" style="rounded=0;whiteSpace=wrap;html=1;fillColor=#fff2cc;strokeColor=#d6b656;" vertex="1" parent="DV2UV_v3Ct8L2TjnKOPa-4">
          <mxGeometry x="210" y="155" width="120" height="60" as="geometry" />
        </mxCell>
        <mxCell id="v3GQx257k6rqws_gaWiy-25" value="Update Page number" style="rounded=1;whiteSpace=wrap;html=1;fillColor=#fff2cc;strokeColor=#d6b656;" vertex="1" parent="DV2UV_v3Ct8L2TjnKOPa-4">
          <mxGeometry x="220" y="260" width="120" height="60" as="geometry" />
        </mxCell>
        <mxCell id="v3GQx257k6rqws_gaWiy-42" value="" style="edgeStyle=orthogonalEdgeStyle;rounded=0;orthogonalLoop=1;jettySize=auto;html=1;" edge="1" parent="DV2UV_v3Ct8L2TjnKOPa-4" source="v3GQx257k6rqws_gaWiy-37" target="v3GQx257k6rqws_gaWiy-41">
          <mxGeometry relative="1" as="geometry" />
        </mxCell>
        <mxCell id="v3GQx257k6rqws_gaWiy-37" value="Create a packet purchasing the printer" style="rounded=1;whiteSpace=wrap;html=1;fillColor=#fff2cc;strokeColor=#d6b656;" vertex="1" parent="DV2UV_v3Ct8L2TjnKOPa-4">
          <mxGeometry x="40" y="610" width="120" height="60" as="geometry" />
        </mxCell>
        <mxCell id="v3GQx257k6rqws_gaWiy-47" value="" style="edgeStyle=orthogonalEdgeStyle;rounded=0;orthogonalLoop=1;jettySize=auto;html=1;" edge="1" parent="DV2UV_v3Ct8L2TjnKOPa-4" source="v3GQx257k6rqws_gaWiy-41" target="v3GQx257k6rqws_gaWiy-43">
          <mxGeometry relative="1" as="geometry" />
        </mxCell>
        <mxCell id="v3GQx257k6rqws_gaWiy-41" value="Printing packet" style="rounded=0;whiteSpace=wrap;html=1;fillColor=#fff2cc;strokeColor=#d6b656;" vertex="1" parent="DV2UV_v3Ct8L2TjnKOPa-4">
          <mxGeometry x="80" y="710" width="120" height="60" as="geometry" />
        </mxCell>
        <mxCell id="v3GQx257k6rqws_gaWiy-63" value="" style="edgeStyle=orthogonalEdgeStyle;rounded=0;orthogonalLoop=1;jettySize=auto;html=1;" edge="1" parent="DV2UV_v3Ct8L2TjnKOPa-4" source="v3GQx257k6rqws_gaWiy-43" target="v3GQx257k6rqws_gaWiy-62">
          <mxGeometry relative="1" as="geometry" />
        </mxCell>
        <mxCell id="v3GQx257k6rqws_gaWiy-43" value="Adding printing packet to printing cart" style="rounded=1;whiteSpace=wrap;html=1;fillColor=#fff2cc;strokeColor=#d6b656;" vertex="1" parent="DV2UV_v3Ct8L2TjnKOPa-4">
          <mxGeometry x="80" y="800" width="120" height="60" as="geometry" />
        </mxCell>
        <mxCell id="v3GQx257k6rqws_gaWiy-44" value="Purchase printing packet" style="whiteSpace=wrap;html=1;rounded=1;fillColor=#fff2cc;strokeColor=#d6b656;" vertex="1" parent="DV2UV_v3Ct8L2TjnKOPa-4">
          <mxGeometry x="310" y="350" width="120" height="60" as="geometry" />
        </mxCell>
        <mxCell id="v3GQx257k6rqws_gaWiy-49" value="Clear printing cart" style="rounded=1;whiteSpace=wrap;html=1;fillColor=#fff2cc;strokeColor=#d6b656;" vertex="1" parent="DV2UV_v3Ct8L2TjnKOPa-4">
          <mxGeometry x="300" y="850" width="120" height="60" as="geometry" />
        </mxCell>
        <mxCell id="v3GQx257k6rqws_gaWiy-62" value="" style="rhombus;whiteSpace=wrap;html=1;fillColor=#fff2cc;strokeColor=#d6b656;" vertex="1" parent="DV2UV_v3Ct8L2TjnKOPa-4">
          <mxGeometry x="230" y="760" width="80" height="80" as="geometry" />
        </mxCell>
        <mxCell id="v3GQx257k6rqws_gaWiy-72" value="Check available page" style="rounded=1;whiteSpace=wrap;html=1;fillColor=#fff2cc;strokeColor=#d6b656;" vertex="1" parent="DV2UV_v3Ct8L2TjnKOPa-4">
          <mxGeometry x="310" y="690" width="120" height="60" as="geometry" />
        </mxCell>
        <mxCell id="v3GQx257k6rqws_gaWiy-71" value="" style="endArrow=open;endFill=1;endSize=12;html=1;rounded=0;exitX=1;exitY=0;exitDx=0;exitDy=0;" edge="1" parent="DV2UV_v3Ct8L2TjnKOPa-4" source="v3GQx257k6rqws_gaWiy-62" target="v3GQx257k6rqws_gaWiy-72">
          <mxGeometry width="160" relative="1" as="geometry">
            <mxPoint x="220" y="650" as="sourcePoint" />
            <mxPoint x="360" y="750" as="targetPoint" />
          </mxGeometry>
        </mxCell>
        <mxCell id="v3GQx257k6rqws_gaWiy-76" value="[Finish]" style="edgeLabel;html=1;align=center;verticalAlign=middle;resizable=0;points=[];" vertex="1" connectable="0" parent="v3GQx257k6rqws_gaWiy-71">
          <mxGeometry x="-0.2509" y="1" relative="1" as="geometry">
            <mxPoint as="offset" />
          </mxGeometry>
        </mxCell>
        <mxCell id="v3GQx257k6rqws_gaWiy-75" value="" style="rhombus;whiteSpace=wrap;html=1;fillColor=#fff2cc;strokeColor=#d6b656;" vertex="1" parent="DV2UV_v3Ct8L2TjnKOPa-4">
          <mxGeometry x="330" y="570" width="80" height="80" as="geometry" />
        </mxCell>
        <mxCell id="v3GQx257k6rqws_gaWiy-74" value="" style="endArrow=open;endFill=1;endSize=12;html=1;rounded=0;exitX=0.5;exitY=0;exitDx=0;exitDy=0;" edge="1" parent="DV2UV_v3Ct8L2TjnKOPa-4" source="v3GQx257k6rqws_gaWiy-72" target="v3GQx257k6rqws_gaWiy-75">
          <mxGeometry width="160" relative="1" as="geometry">
            <mxPoint x="330" y="790" as="sourcePoint" />
            <mxPoint x="370" y="650" as="targetPoint" />
          </mxGeometry>
        </mxCell>
        <mxCell id="v3GQx257k6rqws_gaWiy-77" value="" style="endArrow=open;endFill=1;endSize=12;html=1;rounded=0;exitX=0;exitY=0;exitDx=0;exitDy=0;entryX=0.331;entryY=1.056;entryDx=0;entryDy=0;entryPerimeter=0;" edge="1" parent="DV2UV_v3Ct8L2TjnKOPa-4" source="v3GQx257k6rqws_gaWiy-75" target="v3GQx257k6rqws_gaWiy-44">
          <mxGeometry width="160" relative="1" as="geometry">
            <mxPoint x="220" y="650" as="sourcePoint" />
            <mxPoint x="170" y="650" as="targetPoint" />
          </mxGeometry>
        </mxCell>
        <mxCell id="v3GQx257k6rqws_gaWiy-78" value="[is Enough]" style="edgeLabel;html=1;align=center;verticalAlign=middle;resizable=0;points=[];" vertex="1" connectable="0" parent="v3GQx257k6rqws_gaWiy-77">
          <mxGeometry x="-0.0519" y="-2" relative="1" as="geometry">
            <mxPoint as="offset" />
          </mxGeometry>
        </mxCell>
        <mxCell id="v3GQx257k6rqws_gaWiy-81" value="" style="endArrow=open;endFill=1;endSize=12;html=1;rounded=0;exitX=1;exitY=0;exitDx=0;exitDy=0;entryX=1.007;entryY=0.4;entryDx=0;entryDy=0;entryPerimeter=0;" edge="1" parent="DV2UV_v3Ct8L2TjnKOPa-4" source="v3GQx257k6rqws_gaWiy-75" target="v3GQx257k6rqws_gaWiy-11">
          <mxGeometry width="160" relative="1" as="geometry">
            <mxPoint x="360" y="600" as="sourcePoint" />
            <mxPoint x="360" y="423" as="targetPoint" />
            <Array as="points">
              <mxPoint x="480" y="590" />
              <mxPoint x="480" y="70" />
            </Array>
          </mxGeometry>
        </mxCell>
        <mxCell id="v3GQx257k6rqws_gaWiy-82" value="[Not enough]" style="edgeLabel;html=1;align=center;verticalAlign=middle;resizable=0;points=[];" vertex="1" connectable="0" parent="v3GQx257k6rqws_gaWiy-81">
          <mxGeometry x="-0.0519" y="-2" relative="1" as="geometry">
            <mxPoint x="8" y="180" as="offset" />
          </mxGeometry>
        </mxCell>
        <mxCell id="v3GQx257k6rqws_gaWiy-84" value="" style="rounded=0;whiteSpace=wrap;html=1;rotation=90;fillColor=#000000;" vertex="1" parent="DV2UV_v3Ct8L2TjnKOPa-4">
          <mxGeometry x="150" y="636.25" width="120" height="7.5" as="geometry" />
        </mxCell>
        <mxCell id="v3GQx257k6rqws_gaWiy-36" value="" style="endArrow=open;endFill=1;endSize=12;html=1;rounded=0;exitX=0.5;exitY=1;exitDx=0;exitDy=0;" edge="1" parent="DV2UV_v3Ct8L2TjnKOPa-4" source="v3GQx257k6rqws_gaWiy-84" target="v3GQx257k6rqws_gaWiy-37">
          <mxGeometry width="160" relative="1" as="geometry">
            <mxPoint x="190" y="640" as="sourcePoint" />
            <mxPoint x="150" y="640" as="targetPoint" />
          </mxGeometry>
        </mxCell>
        <mxCell id="v3GQx257k6rqws_gaWiy-86" value="" style="endArrow=classic;html=1;rounded=0;exitX=0.842;exitY=1.045;exitDx=0;exitDy=0;exitPerimeter=0;entryX=0.092;entryY=-0.021;entryDx=0;entryDy=0;entryPerimeter=0;" edge="1" parent="DV2UV_v3Ct8L2TjnKOPa-4" source="v3GQx257k6rqws_gaWiy-25" target="v3GQx257k6rqws_gaWiy-44">
          <mxGeometry width="50" height="50" relative="1" as="geometry">
            <mxPoint x="170" y="350" as="sourcePoint" />
            <mxPoint x="220" y="300" as="targetPoint" />
          </mxGeometry>
        </mxCell>
        <mxCell id="q9RgxO5QW-2abfjbMmCy-1" value="" style="endArrow=classic;html=1;rounded=0;exitX=1;exitY=0.5;exitDx=0;exitDy=0;entryX=0.564;entryY=-0.066;entryDx=0;entryDy=0;entryPerimeter=0;" edge="1" parent="DV2UV_v3Ct8L2TjnKOPa-4" source="v3GQx257k6rqws_gaWiy-44" target="q9RgxO5QW-2abfjbMmCy-2">
          <mxGeometry width="50" height="50" relative="1" as="geometry">
            <mxPoint x="420" y="700" as="sourcePoint" />
            <mxPoint x="468" y="720" as="targetPoint" />
            <Array as="points">
              <mxPoint x="470" y="380" />
            </Array>
          </mxGeometry>
        </mxCell>
        <mxCell id="q9RgxO5QW-2abfjbMmCy-2" value="Put printing packet s into printing log" style="rounded=1;whiteSpace=wrap;html=1;fillColor=#fff2cc;strokeColor=#d6b656;" vertex="1" parent="DV2UV_v3Ct8L2TjnKOPa-4">
          <mxGeometry x="400" y="760" width="120" height="60" as="geometry" />
        </mxCell>
        <mxCell id="q9RgxO5QW-2abfjbMmCy-3" value="" style="endArrow=classic;html=1;rounded=0;exitX=0.571;exitY=1.001;exitDx=0;exitDy=0;exitPerimeter=0;entryX=1;entryY=0.25;entryDx=0;entryDy=0;" edge="1" parent="DV2UV_v3Ct8L2TjnKOPa-4" source="q9RgxO5QW-2abfjbMmCy-2" target="v3GQx257k6rqws_gaWiy-49">
          <mxGeometry width="50" height="50" relative="1" as="geometry">
            <mxPoint x="420" y="660" as="sourcePoint" />
            <mxPoint x="470" y="610" as="targetPoint" />
            <Array as="points">
              <mxPoint x="469" y="865" />
            </Array>
          </mxGeometry>
        </mxCell>
        <mxCell id="DV2UV_v3Ct8L2TjnKOPa-5" value="BK Pay" style="swimlane;whiteSpace=wrap;html=1;fillColor=#dae8fc;strokeColor=#002a66;" vertex="1" parent="1">
          <mxGeometry x="890" width="200" height="320" as="geometry" />
        </mxCell>
        <mxCell id="v3GQx257k6rqws_gaWiy-24" value="" style="edgeStyle=orthogonalEdgeStyle;rounded=0;orthogonalLoop=1;jettySize=auto;html=1;" edge="1" parent="DV2UV_v3Ct8L2TjnKOPa-5" source="v3GQx257k6rqws_gaWiy-18" target="v3GQx257k6rqws_gaWiy-21">
          <mxGeometry relative="1" as="geometry" />
        </mxCell>
        <mxCell id="v3GQx257k6rqws_gaWiy-18" value="Purchase packet" style="rounded=1;whiteSpace=wrap;html=1;fillColor=#dae8fc;strokeColor=#6c8ebf;" vertex="1" parent="DV2UV_v3Ct8L2TjnKOPa-5">
          <mxGeometry x="30" y="50" width="120" height="60" as="geometry" />
        </mxCell>
        <mxCell id="v3GQx257k6rqws_gaWiy-21" value="" style="rhombus;whiteSpace=wrap;html=1;fillColor=#dae8fc;strokeColor=#6c8ebf;" vertex="1" parent="DV2UV_v3Ct8L2TjnKOPa-5">
          <mxGeometry x="50" y="120" width="80" height="80" as="geometry" />
        </mxCell>
        <mxCell id="DV2UV_v3Ct8L2TjnKOPa-6" value="" style="ellipse;fillColor=strokeColor;html=1;" vertex="1" parent="1">
          <mxGeometry x="-70" y="60" width="30" height="30" as="geometry" />
        </mxCell>
        <mxCell id="DV2UV_v3Ct8L2TjnKOPa-8" value="" style="endArrow=classic;html=1;rounded=0;exitX=1;exitY=0.5;exitDx=0;exitDy=0;entryX=0;entryY=0.5;entryDx=0;entryDy=0;" edge="1" parent="1" source="DV2UV_v3Ct8L2TjnKOPa-6" target="DV2UV_v3Ct8L2TjnKOPa-7">
          <mxGeometry width="50" height="50" relative="1" as="geometry">
            <mxPoint x="240" y="370" as="sourcePoint" />
            <mxPoint x="290" y="320" as="targetPoint" />
          </mxGeometry>
        </mxCell>
        <mxCell id="DV2UV_v3Ct8L2TjnKOPa-33" value="" style="endArrow=open;endFill=1;endSize=12;html=1;rounded=0;entryX=0;entryY=0.5;entryDx=0;entryDy=0;exitX=1;exitY=0.5;exitDx=0;exitDy=0;" edge="1" parent="1" source="DV2UV_v3Ct8L2TjnKOPa-18" target="DV2UV_v3Ct8L2TjnKOPa-23">
          <mxGeometry width="160" relative="1" as="geometry">
            <mxPoint x="450" y="390" as="sourcePoint" />
            <mxPoint x="610" y="390" as="targetPoint" />
          </mxGeometry>
        </mxCell>
        <mxCell id="DV2UV_v3Ct8L2TjnKOPa-37" value="" style="endArrow=open;endFill=1;endSize=12;html=1;rounded=0;exitX=0;exitY=0.5;exitDx=0;exitDy=0;entryX=0.424;entryY=0.091;entryDx=0;entryDy=0;entryPerimeter=0;" edge="1" parent="1" source="DV2UV_v3Ct8L2TjnKOPa-28" target="v3GQx257k6rqws_gaWiy-83">
          <mxGeometry width="160" relative="1" as="geometry">
            <mxPoint x="430" y="340" as="sourcePoint" />
            <mxPoint x="240" y="400" as="targetPoint" />
          </mxGeometry>
        </mxCell>
        <mxCell id="SN7o0DrtnjlMzKYmmWDg-8" value="" style="endArrow=open;endFill=1;endSize=12;html=1;rounded=0;exitX=0;exitY=1;exitDx=0;exitDy=0;entryX=0.5;entryY=1;entryDx=0;entryDy=0;" edge="1" parent="1" source="SN7o0DrtnjlMzKYmmWDg-7" target="DV2UV_v3Ct8L2TjnKOPa-42">
          <mxGeometry width="160" relative="1" as="geometry">
            <mxPoint x="370" y="410" as="sourcePoint" />
            <mxPoint x="250" y="410" as="targetPoint" />
            <Array as="points">
              <mxPoint x="610" y="560" />
              <mxPoint x="150" y="560" />
            </Array>
          </mxGeometry>
        </mxCell>
        <mxCell id="SN7o0DrtnjlMzKYmmWDg-9" value="[invalid properties]" style="edgeLabel;html=1;align=center;verticalAlign=middle;resizable=0;points=[];" vertex="1" connectable="0" parent="SN7o0DrtnjlMzKYmmWDg-8">
          <mxGeometry x="0.3003" y="-2" relative="1" as="geometry">
            <mxPoint x="23" as="offset" />
          </mxGeometry>
        </mxCell>
        <mxCell id="v3GQx257k6rqws_gaWiy-16" value="" style="endArrow=classic;html=1;rounded=0;exitX=1;exitY=0.5;exitDx=0;exitDy=0;entryX=0;entryY=0.25;entryDx=0;entryDy=0;" edge="1" parent="1" source="DV2UV_v3Ct8L2TjnKOPa-9" target="v3GQx257k6rqws_gaWiy-11">
          <mxGeometry width="50" height="50" relative="1" as="geometry">
            <mxPoint x="670" y="530" as="sourcePoint" />
            <mxPoint x="720" y="480" as="targetPoint" />
            <Array as="points">
              <mxPoint x="480" y="170" />
              <mxPoint x="480" y="60" />
            </Array>
          </mxGeometry>
        </mxCell>
        <mxCell id="v3GQx257k6rqws_gaWiy-17" value="[Purchase Page]" style="edgeLabel;html=1;align=center;verticalAlign=middle;resizable=0;points=[];" vertex="1" connectable="0" parent="v3GQx257k6rqws_gaWiy-16">
          <mxGeometry x="-0.8664" y="-1" relative="1" as="geometry">
            <mxPoint x="92" y="-2" as="offset" />
          </mxGeometry>
        </mxCell>
        <mxCell id="v3GQx257k6rqws_gaWiy-26" value="" style="endArrow=classic;html=1;rounded=0;entryX=1;entryY=0.5;entryDx=0;entryDy=0;exitX=0;exitY=1;exitDx=0;exitDy=0;" edge="1" parent="1" source="v3GQx257k6rqws_gaWiy-21" target="v3GQx257k6rqws_gaWiy-25">
          <mxGeometry width="50" height="50" relative="1" as="geometry">
            <mxPoint x="620" y="420" as="sourcePoint" />
            <mxPoint x="670" y="370" as="targetPoint" />
          </mxGeometry>
        </mxCell>
        <mxCell id="v3GQx257k6rqws_gaWiy-27" value="[Paid success]" style="edgeLabel;html=1;align=center;verticalAlign=middle;resizable=0;points=[];" vertex="1" connectable="0" parent="v3GQx257k6rqws_gaWiy-26">
          <mxGeometry x="0.0301" relative="1" as="geometry">
            <mxPoint as="offset" />
          </mxGeometry>
        </mxCell>
        <mxCell id="v3GQx257k6rqws_gaWiy-28" value="" style="endArrow=classic;html=1;rounded=0;exitX=1;exitY=0.5;exitDx=0;exitDy=0;entryX=0;entryY=0.5;entryDx=0;entryDy=0;" edge="1" parent="1" source="v3GQx257k6rqws_gaWiy-14" target="v3GQx257k6rqws_gaWiy-18">
          <mxGeometry width="50" height="50" relative="1" as="geometry">
            <mxPoint x="750" y="610" as="sourcePoint" />
            <mxPoint x="800" y="560" as="targetPoint" />
          </mxGeometry>
        </mxCell>
        <mxCell id="v3GQx257k6rqws_gaWiy-34" value="" style="endArrow=open;endFill=1;endSize=12;html=1;rounded=0;exitX=0;exitY=0.5;exitDx=0;exitDy=0;entryX=0.669;entryY=0.11;entryDx=0;entryDy=0;entryPerimeter=0;" edge="1" parent="1" source="DV2UV_v3Ct8L2TjnKOPa-25" target="v3GQx257k6rqws_gaWiy-84">
          <mxGeometry width="160" relative="1" as="geometry">
            <mxPoint x="250" y="390" as="sourcePoint" />
            <mxPoint x="630" y="660" as="targetPoint" />
            <Array as="points">
              <mxPoint x="-30" y="380" />
              <mxPoint x="-30" y="540" />
              <mxPoint x="600" y="540" />
              <mxPoint x="600" y="660" />
            </Array>
          </mxGeometry>
        </mxCell>
        <mxCell id="v3GQx257k6rqws_gaWiy-38" value="Create a printing packet that student need to pay by page number&amp;nbsp;" style="shape=note2;boundedLbl=1;whiteSpace=wrap;html=1;size=25;verticalAlign=top;align=center;fillColor=#fff2cc;strokeColor=#d6b656;" vertex="1" parent="1">
          <mxGeometry x="390" y="960" width="120" height="90" as="geometry" />
        </mxCell>
        <mxCell id="v3GQx257k6rqws_gaWiy-40" value="" style="endArrow=none;dashed=1;html=1;rounded=0;exitX=0;exitY=0;exitDx=47.5;exitDy=0;exitPerimeter=0;entryX=0.23;entryY=1.001;entryDx=0;entryDy=0;entryPerimeter=0;" edge="1" parent="1" source="v3GQx257k6rqws_gaWiy-38" target="v3GQx257k6rqws_gaWiy-37">
          <mxGeometry width="50" height="50" relative="1" as="geometry">
            <mxPoint x="300" y="1130" as="sourcePoint" />
            <mxPoint x="350" y="1080" as="targetPoint" />
          </mxGeometry>
        </mxCell>
        <mxCell id="v3GQx257k6rqws_gaWiy-48" value="" style="endArrow=classic;html=1;rounded=0;exitX=1;exitY=1;exitDx=0;exitDy=0;entryX=1;entryY=0.5;entryDx=0;entryDy=0;" edge="1" parent="1" source="v3GQx257k6rqws_gaWiy-21" target="v3GQx257k6rqws_gaWiy-49">
          <mxGeometry width="50" height="50" relative="1" as="geometry">
            <mxPoint x="980" y="320" as="sourcePoint" />
            <mxPoint x="760" y="870" as="targetPoint" />
            <Array as="points">
              <mxPoint x="1000" y="880" />
            </Array>
          </mxGeometry>
        </mxCell>
        <mxCell id="v3GQx257k6rqws_gaWiy-50" value="[Paid fail]" style="edgeLabel;html=1;align=center;verticalAlign=middle;resizable=0;points=[];" vertex="1" connectable="0" parent="v3GQx257k6rqws_gaWiy-48">
          <mxGeometry x="-0.9638" y="1" relative="1" as="geometry">
            <mxPoint x="-1" y="34" as="offset" />
          </mxGeometry>
        </mxCell>
        <mxCell id="v3GQx257k6rqws_gaWiy-53" value="" style="edgeStyle=orthogonalEdgeStyle;rounded=0;orthogonalLoop=1;jettySize=auto;html=1;entryX=0.5;entryY=0;entryDx=0;entryDy=0;" edge="1" parent="1" source="v3GQx257k6rqws_gaWiy-49" target="v3GQx257k6rqws_gaWiy-54">
          <mxGeometry relative="1" as="geometry">
            <mxPoint x="730" y="1119.9999999999998" as="targetPoint" />
          </mxGeometry>
        </mxCell>
        <mxCell id="v3GQx257k6rqws_gaWiy-54" value="" style="ellipse;html=1;shape=endState;fillColor=strokeColor;" vertex="1" parent="1">
          <mxGeometry x="715" y="960" width="30" height="30" as="geometry" />
        </mxCell>
        <mxCell id="v3GQx257k6rqws_gaWiy-68" value="" style="endArrow=open;endFill=1;endSize=12;html=1;rounded=0;exitX=1;exitY=1;exitDx=0;exitDy=0;entryX=0;entryY=0.5;entryDx=0;entryDy=0;" edge="1" parent="1" source="v3GQx257k6rqws_gaWiy-62" target="DV2UV_v3Ct8L2TjnKOPa-18">
          <mxGeometry width="160" relative="1" as="geometry">
            <mxPoint x="590" y="650" as="sourcePoint" />
            <mxPoint x="540" y="650" as="targetPoint" />
            <Array as="points">
              <mxPoint x="670" y="830" />
              <mxPoint x="580" y="910" />
              <mxPoint x="-20" y="910" />
              <mxPoint x="-20" y="300" />
            </Array>
          </mxGeometry>
        </mxCell>
        <mxCell id="v3GQx257k6rqws_gaWiy-69" value="[Not finish]" style="edgeLabel;html=1;align=center;verticalAlign=middle;resizable=0;points=[];" vertex="1" connectable="0" parent="v3GQx257k6rqws_gaWiy-68">
          <mxGeometry x="-0.8782" y="5" relative="1" as="geometry">
            <mxPoint x="-10" as="offset" />
          </mxGeometry>
        </mxCell>
        <mxCell id="DV2UV_v3Ct8L2TjnKOPa-44" value="" style="endArrow=open;endFill=1;endSize=12;html=1;rounded=0;entryX=0;entryY=0.5;entryDx=0;entryDy=0;exitX=0;exitY=0.5;exitDx=0;exitDy=0;" edge="1" parent="1" source="DV2UV_v3Ct8L2TjnKOPa-42" target="DV2UV_v3Ct8L2TjnKOPa-45">
          <mxGeometry width="160" relative="1" as="geometry">
            <mxPoint x="-40" y="450" as="sourcePoint" />
            <mxPoint x="310" y="500" as="targetPoint" />
            <Array as="points">
              <mxPoint x="-40" y="450" />
              <mxPoint x="-40" y="490" />
            </Array>
          </mxGeometry>
        </mxCell>
      </root>
    </mxGraphModel>
  </diagram>
</mxfile>
